#!OML:ASF H:\GeneralSubjects\Female5\Project 1\Capture day 1\Session 1\Female5.ASF
:FULLY-SPECIFIED
:DEGREES
361
root 36.0236 15.5434 7.57858 -352.162 -24.6964 -364.43
lowerback 26.1781 -5.53242 -10.1076
upperback -13.7763 -10.0922 12.9021
thorax -35.7278 5.33194 36.61
lowerneck -10.0856 7.18095 -7.71524
upperneck 46.1973 16.0091 -7.4364
head 20.3283 3.48454 0.415733
rclavicle 7.4743e-014 -1.11319e-013
rhumerus -94.5789 63.875 -123.14
rradius 45.4605
rwrist -16.6363
rhand -24.4053 -20.217
rfingers 7.12502
rthumb 2.0859 -50.1866
lclavicle 7.4743e-014 -1.11319e-013
lhumerus -92.5471 28.6301 60.4099
lradius 45.7699
lwrist 2.13448
lhand -22.628 25.9501
lfingers 7.12502
lthumb 3.80237 55.896
rfemur 0.337683 4.08701 44.2034
rtibia 1.74875
rfoot -6.41202 1.45406
rtoes -43.2187
lfemur -32.3167 -14.1664 -10.2941
ltibia 21.7894
lfoot -35.9157 1.48236
ltoes -43.5034
362
root 35.9871 15.5424 7.77667 -351.902 -26.4822 -364.627
lowerback 26.1 -5.35552 -10.1202
upperback -13.5099 -9.73832 13.1255
thorax -35.1743 5.25963 36.5915
lowerneck -10.7086 7.20174 -7.80595
upperneck 45.4505 16.203 -7.78039
head 20.0367 3.53058 0.347109
rclavicle -1.27222e-014 1.01778e-013
rhumerus -94.391 64.7029 -124.005
rradius 45.1694
rwrist -16.5059
rhand -24.4832 -20.6032
rfingers 7.12502
rthumb 2.01072 -50.5735
lclavicle -1.27222e-014 1.01778e-013
lhumerus -92.585 28.7071 60.3163
lradius 45.3211
lwrist 2.67959
lhand -22.1669 25.8881
lfingers 7.12502
lthumb 4.24757 55.8255
rfemur 0.934787 6.70831 44.5899
rtibia 2.59263
rfoot -6.91385 0.568661
rtoes -44.4307
lfemur -32.6557 -18.691 -7.95465
ltibia 16.3991
lfoot -36.0747 2.11741
ltoes -43.7596
363
root 35.9448 15.5389 7.97791 -351.585 -28.3103 -364.85
lowerback 25.9553 -5.14131 -10.1709
upperback -13.2501 -9.34955 13.3442
thorax -34.6184 5.21134 36.5736
lowerneck -11.2203 7.24463 -7.80085
upperneck 44.7364 16.3857 -8.11935
head 19.7541 3.59445 0.259977
rclavicle 1.04958e-013 -3.18055e-014
rhumerus -93.9686 65.4044 -124.474
rradius 44.8444
rwrist -16.6961
rhand -24.6902 -20.6396
rfingers 7.12502
rthumb 1.81078 -50.6116
lclavicle 1.04958e-013 -3.18055e-014
lhumerus -92.6792 28.7355 60.1044
lradius 44.6362
lwrist 2.72158
lhand -22.5438 26.2054
lfingers 7.12502
lthumb 3.88364 56.1497
rfemur 1.82786 7.40403 44.635
rtibia 2.44573
rfoot -6.32983 1.21563
rtoes -46.3253
lfemur -33.3366 -23.0635 -5.31119
ltibia 11.9761
lfoot -35.1327 0.588025
ltoes -42.2298
364
root 35.8957 15.5334 8.18345 -351.263 -30.1894 -364.987
lowerback 25.7292 -4.91058 -10.2716
upperback -13.0312 -8.97201 13.5335
thorax -34.0833 5.17657 36.551
lowerneck -11.7743 7.31397 -7.92609
upperneck 44.2209 16.6002 -8.2568
head 19.5764 3.65571 0.295503
rclavicle -2.22639e-014 -1.145e-013
rhumerus -93.5497 65.9714 -124.778
rradius 44.4997
rwrist -16.9547
rhand -24.7576 -20.6339
rfingers 7.12502
rthumb 1.74572 -50.6065
lclavicle -2.22639e-014 -1.145e-013
lhumerus -92.9691 28.7571 59.623
lradius 43.7523
lwrist 2.04495
lhand -23.3959 26.7632
lfingers 7.12502
lthumb 3.0608 56.721
rfemur 2.30153 7.04016 44.3511
rtibia 2.93608
rfoot -5.79284 2.90499
rtoes -48.3433
lfemur -34.4926 -26.7833 -2.81103
ltibia 8.79791
lfoot -34.262 -0.481101
ltoes -42.5111
365
root 35.8414 15.5241 8.39562 -350.859 -31.9086 -365.159
lowerback 25.4449 -4.73734 -10.2165
upperback -12.8852 -8.61692 13.7139
thorax -33.6554 5.11839 36.3881
lowerneck -12.4362 7.28651 -8.25033
upperneck 43.837 16.6614 -8.16438
head 19.4502 3.63777 0.446679
rclavicle 1.25632e-013 -6.04305e-014
rhumerus -92.9891 66.2778 -124.682
rradius 44.2404
rwrist -17.1312
rhand -24.629 -20.4417
rfingers 7.12502
rthumb 1.86986 -50.4132
lclavicle 1.25632e-013 -6.04305e-014
lhumerus -93.1949 28.6195 59.3975
lradius 42.8991
lwrist 1.71039
lhand -23.8178 27.4684
lfingers 7.12502
lthumb 2.65335 57.4316
rfemur 2.73583 6.90884 44.1211
rtibia 3.48023
rfoot -5.30446 4.40631
rtoes -50.3064
lfemur -36.4182 -30.3656 0.0404545
ltibia 6.80009
lfoot -33.379 -2.3613
ltoes -42.2331
366
root 35.7728 15.5133 8.61213 -350.449 -33.5639 -365.387
lowerback 25.1233 -4.57767 -10.1683
upperback -12.7509 -8.28837 13.8895
thorax -33.1858 5.03349 36.2069
lowerneck -12.9458 7.2277 -8.44511
upperneck 43.4033 16.6243 -8.13648
head 19.2726 3.60852 0.520313
rclavicle 3.49861e-014 -1.04958e-013
rhumerus -91.2345 66.3179 -123.111
rradius 44.0152
rwrist -17.0394
rhand -24.2376 -19.6712
rfingers 7.12502
rthumb 2.24792 -49.6391
lclavicle 3.49861e-014 -1.04958e-013
lhumerus -93.5198 28.5293 58.8134
lradius 41.9444
lwrist 1.21937
lhand -23.6626 28.0612
lfingers 7.12502
lthumb 2.80317 58.0225
rfemur 3.18747 7.2232 44.0418
rtibia 4.22925
rfoot -5.00678 5.39021
rtoes -50.471
lfemur -38.3629 -32.8499 2.27206
ltibia 6.20757
lfoot -31.4482 -4.78197
ltoes -44.8111
